<?xml version="1.0" encoding="utf-8"?>
<!-- Generator: Adobe Illustrator 22.0.1, SVG Export Plug-In . SVG Version: 6.00 Build 0)  -->
<svg version="1.1" id="Layer_1" xmlns="http://www.w3.org/2000/svg" xmlns:xlink="http://www.w3.org/1999/xlink" x="0px" y="0px"
	 viewBox="0 0 72 72" style="enable-background:new 0 0 72 72;" xml:space="preserve">
<style type="text/css">
	.st0{fill:#222021;}
	.st1{fill:#EF5052;}
</style>
<g>
	<path class="st0" d="M43.3,54.6h1.5c0,0,0,0,0,0L39.6,45h-3.2h-0.1h-1.7c-0.3,0-0.6,0-0.9,0c-6.5,0.5-11.6,5.9-11.6,12.5
		c0,1.3,0.2,2.5,0.6,3.7l0.1,0.2c0.1,0.3,0.2,0.6,0.3,0.9l0.2,0.4c0.1,0.2,0.2,0.4,0.3,0.6l0.2,0.4c0.1,0.1,0.2,0.3,0.3,0.4l0.1,0.1
		c0.9,1.5,2.2,2.8,3.7,3.8l0.1,0.1c1.7,1.1,3.8,1.8,5.9,2v0h0h1.7h17.7l-5.4-10.1H34l-0.4,0c-1-0.5-1.6-1.5-1.6-2.6
		c0-1.2,0.7-2.1,1.6-2.6v0h0.6h0.2h1.7h6.9H43.3z"/>
	<path class="st0" d="M42.1,16.3c0.7,0.8,1.2,1.7,1.5,2.7l0.2,0.5c0.1,0.2,0.1,0.5,0.2,0.7l0,0.2c0,0.1,0,0.1,0,0.2v0.1h0
		c0.1,0.6,0.2,1.2,0.2,1.8c0,5.5-4.5,10-10,10c-1.9,0-3.8-0.6-5.3-1.5l-0.1,0c-0.2-0.1-0.4-0.3-0.6-0.4l-0.1-0.1
		c-2.4-1.8-3.9-4.7-3.9-8c0-5.5,4.5-10,10-10C37.4,12.5,40.2,13.9,42.1,16.3L42.1,16.3z M52.1,9.8c-1.8-2.5-4.1-4.6-6.8-6.2l0,0
		c-0.4-0.2-0.8-0.4-1.2-0.6c-3-1.5-6.3-2.3-9.8-2.3H21.9h-0.7h-5.9l3.5,6.5c-3.4,3.4-5.7,8-6.2,13l-0.1,0.6
		c-0.1,0.6-0.1,1.2-0.1,1.9c0,0.3,0,0.7,0,1l0,0.5c0.1,1,0.2,2,0.4,2.9l0.1,0.2c0.5,2.2,1.3,4.2,2.3,6.1l0.1,0.2
		c3.3,5.6,9,9.6,15.6,10.6c1.1,0.2,2.2,0.3,3.3,0.3c1.7,0,3.3-0.2,4.9-0.6C39.1,43.6,39,43.3,39,43c0-2.1,1.7-3.8,3.8-3.8
		c1.4,0,2.5,0.7,3.2,1.8c1.7-1.1,3.3-2.5,4.7-4c3.4-3.9,5.5-8.9,5.5-14.4c0-0.6,0-1.2-0.1-1.8c-0.2-2.5-0.8-4.8-1.8-7l-0.1-0.2
		c0-0.1-0.1-0.2-0.1-0.2c0,0,0,0,0,0c0,0,0,0,0,0C53.6,12.1,52.9,10.9,52.1,9.8"/>
	<polygon class="st1" points="55.3,70.5 58.2,71.4 59.6,66.5 58.3,67.7 56.3,67.9 54.9,69.5 53.1,69.9 55.2,70.5 	"/>
</g>
</svg>
